<svg width="4000" height="4000" viewBox="0 0 4000 4000" fill="none" xmlns="http://www.w3.org/2000/svg">
<rect width="4000" height="4000" rx="626" fill="#040F0F"/>
<path d="M1306 1425C1306 1358.73 1359.73 1305 1426 1305H1674.98C1729.13 1305 1776.58 1341.27 1790.78 1393.53L1933.01 1916.92C1951.45 1984.76 2047.69 1984.69 2066.03 1916.83L2207.4 1393.7C2221.54 1341.35 2269.02 1305 2323.24 1305H2574.7C2640.98 1305 2694.7 1358.73 2694.7 1425V2574.13C2694.7 2640.41 2640.98 2694.13 2574.7 2694.13H2362.25H2027.13H1638.45H1426C1359.73 2694.13 1306 2640.41 1306 2574.13V1425Z" fill="white"/>
</svg>
