<svg width="25" height="24" viewBox="0 0 25 24" fill="none" xmlns="http://www.w3.org/2000/svg">
<path d="M12.5 11.825C13 11.825 13.4292 11.6458 13.7875 11.2875C14.1458 10.9292 14.325 10.5 14.325 10C14.325 9.5 14.1458 9.07083 13.7875 8.7125C13.4292 8.35417 13 8.175 12.5 8.175C12 8.175 11.5708 8.35417 11.2125 8.7125C10.8542 9.07083 10.675 9.5 10.675 10C10.675 10.5 10.8542 10.9292 11.2125 11.2875C11.5708 11.6458 12 11.825 12.5 11.825ZM12.5 19.7C14.6333 17.75 16.2083 15.9792 17.225 14.3875C18.2417 12.7958 18.75 11.4 18.75 10.2C18.75 8.3 18.1458 6.75 16.9375 5.55C15.7292 4.35 14.25 3.75 12.5 3.75C10.75 3.75 9.27083 4.35 8.0625 5.55C6.85417 6.75 6.25 8.3 6.25 10.2C6.25 11.4 6.77083 12.7917 7.8125 14.375C8.85417 15.9583 10.4167 17.7333 12.5 19.7ZM12.5 22.3C9.73333 19.95 7.66667 17.7708 6.3 15.7625C4.93333 13.7542 4.25 11.9 4.25 10.2C4.25 7.63333 5.07917 5.58333 6.7375 4.05C8.39583 2.51667 10.3167 1.75 12.5 1.75C14.6833 1.75 16.6042 2.51667 18.2625 4.05C19.9208 5.58333 20.75 7.63333 20.75 10.2C20.75 11.9 20.0667 13.7542 18.7 15.7625C17.3333 17.7708 15.2667 19.95 12.5 22.3Z" fill="#F2F2F2"/>
</svg>
