<svg width="2090" height="3729" viewBox="0 0 2090 3729" fill="none" xmlns="http://www.w3.org/2000/svg">
<path fill-rule="evenodd" clip-rule="evenodd" d="M240 0C107.452 0 0 107.452 0 240V3489C0 3621.55 107.452 3729 240 3729H1850C1982.55 3729 2090 3621.55 2090 3489V240C2090 107.452 1982.55 0 1850 0H240ZM339 102C206.452 102 99 209.452 99 342V3387C99 3519.55 206.452 3627 339 3627H1751C1883.55 3627 1991 3519.55 1991 3387V342C1991 209.452 1883.55 102 1751 102H339Z" fill="white"/>
<rect x="199" y="219" width="1692" height="3291" rx="146" fill="white"/>
</svg>
